<?xml version="1.0" standalone="no"?>
<!DOCTYPE svg PUBLIC "-//W3C//DTD SVG 20010904//EN"
 "http://www.w3.org/TR/2001/REC-SVG-20010904/DTD/svg10.dtd">
<svg version="1.0" xmlns="http://www.w3.org/2000/svg"
 width="500.000000pt" height="500.000000pt" viewBox="0 0 500.000000 500.000000"
 preserveAspectRatio="xMidYMid meet">

<g transform="translate(0.000000,500.000000) scale(0.100000,-0.100000)"
fill="#000000" stroke="none">
<path d="M0 2500 l0 -2500 2500 0 2500 0 0 2500 0 2500 -2500 0 -2500 0 0
-2500z m1004 304 c-1 -33 -10 -67 -28 -99 -14 -28 -26 -55 -26 -62 0 -8 55
-12 193 -15 191 -3 192 -3 245 -32 103 -57 149 -164 117 -271 -49 -172 -254
-232 -401 -120 -31 23 -40 25 -154 25 l-121 0 -46 -35 c-108 -82 -248 -68
-335 35 -117 136 -43 351 132 389 28 6 111 11 184 11 l133 0 6 34 c3 19 15 48
27 63 11 16 23 47 26 68 8 59 12 67 31 63 15 -3 18 -13 17 -54z m1016 -247
c32 -11 35 -15 35 -51 0 -49 -19 -58 -33 -16 -23 65 -128 77 -175 20 -56 -65
-41 -212 24 -245 34 -18 89 -19 124 -3 21 9 25 18 25 55 0 41 -1 43 -30 43
-16 0 -30 5 -30 10 0 6 25 10 55 10 l55 0 0 -61 c0 -60 0 -60 -37 -76 -55 -24
-150 -23 -193 2 -53 31 -83 95 -77 169 6 65 25 98 77 134 38 25 120 29 180 9z
m1207 -102 c32 -63 60 -115 63 -115 3 0 31 52 63 115 l57 115 45 0 c33 0 45
-4 45 -15 0 -9 -9 -15 -25 -15 l-26 0 3 -142 c3 -140 4 -143 26 -146 50 -7 18
-22 -48 -22 -40 0 -70 4 -70 10 0 6 9 10 20 10 29 0 31 12 28 141 l-3 114 -54
-112 c-40 -84 -59 -113 -72 -113 -14 0 -34 29 -73 108 l-55 107 0 -122 c-1
-117 0 -123 19 -123 11 0 20 -4 20 -10 0 -6 -27 -10 -60 -10 -58 0 -84 15 -37
22 21 3 22 6 25 146 l3 142 -26 0 c-24 0 -32 10 -18 23 3 4 26 7 50 7 l43 0
57 -115z m931 92 c4 -20 -25 -34 -40 -19 -15 15 -1 44 19 40 10 -2 19 -11 21
-21z m-1906 -78 c52 -14 68 -48 68 -144 0 -60 3 -75 15 -75 8 0 15 -4 15 -10
0 -5 -16 -10 -35 -10 -19 0 -35 4 -35 9 0 6 -16 3 -36 -5 -67 -28 -124 3 -124
67 0 53 35 79 107 79 52 0 54 1 47 23 -11 36 -25 47 -60 47 -23 0 -38 -6 -46
-20 -18 -28 -38 -25 -38 5 0 19 7 26 28 31 15 3 32 7 37 9 16 6 18 5 57 -6z
m329 -19 c15 -18 18 -18 30 -4 38 46 110 35 128 -18 6 -17 11 -64 11 -104 0
-67 2 -74 20 -74 11 0 20 -4 20 -10 0 -6 -27 -10 -60 -10 -33 0 -60 4 -60 10
0 6 7 10 15 10 13 0 15 15 13 93 l-3 92 -35 0 c-45 0 -60 -28 -60 -113 0 -56
3 -65 20 -69 40 -11 18 -23 -40 -23 -33 0 -60 4 -60 10 0 6 9 10 20 10 18 0
20 7 20 83 0 91 -8 107 -52 107 -38 0 -48 -24 -48 -114 0 -61 3 -76 15 -76 8
0 15 -4 15 -10 0 -5 -25 -10 -55 -10 -54 0 -74 13 -35 23 18 5 20 14 20 96 0
84 -1 91 -20 91 -11 0 -20 7 -20 15 0 11 11 15 40 15 30 0 40 -4 40 -16 0 -13
5 -12 27 6 31 24 68 20 94 -10z m416 -3 c25 -22 48 -81 38 -97 -3 -5 -44 -10
-92 -10 l-85 0 6 -32 c8 -41 30 -58 73 -58 24 0 37 7 49 25 9 14 23 25 30 25
42 0 -18 -66 -69 -75 -80 -15 -144 53 -134 142 11 97 116 143 184 80z m675 22
c52 -14 68 -48 68 -144 0 -60 3 -75 15 -75 8 0 15 -4 15 -10 0 -5 -16 -10 -35
-10 -19 0 -35 4 -35 9 0 6 -16 3 -36 -5 -67 -28 -124 3 -124 67 0 53 35 79
107 79 52 0 54 1 47 23 -11 36 -25 47 -60 47 -23 0 -38 -6 -46 -20 -18 -28
-38 -25 -38 5 0 19 7 26 28 31 15 3 32 7 37 9 16 6 18 5 57 -6z m331 -18 c14
-13 20 -40 24 -109 4 -68 10 -92 19 -92 8 0 14 -4 14 -10 0 -5 -25 -10 -55
-10 -30 0 -55 5 -55 10 0 6 7 10 15 10 12 0 15 15 15 79 0 101 -4 111 -46 111
-44 0 -54 -20 -54 -114 0 -61 3 -76 15 -76 8 0 15 -4 15 -10 0 -5 -25 -10 -55
-10 -30 0 -55 5 -55 10 0 6 7 10 15 10 12 0 15 17 15 94 0 85 -2 94 -20 99
-37 10 -21 27 25 27 36 0 45 -3 45 -17 0 -11 3 -14 8 -7 24 36 81 39 115 5z
m372 15 c46 -20 55 -42 55 -135 0 -74 2 -81 20 -81 11 0 20 -4 20 -10 0 -5
-18 -10 -40 -10 -22 0 -40 5 -40 10 0 6 -14 3 -31 -6 -63 -32 -129 4 -129 72
0 46 29 67 100 72 46 3 60 8 60 20 0 48 -87 72 -112 32 -17 -27 -28 -25 -28 5
0 19 7 26 33 34 45 13 53 13 92 -3z m-215 -102 c0 -97 2 -106 20 -111 40 -11
18 -23 -40 -23 -33 0 -60 4 -60 10 0 6 9 10 20 10 19 0 20 7 20 94 0 85 -2 94
-20 99 -35 9 -22 27 20 27 l40 0 0 -106z"/>
<path d="M1307 2522 c-22 -24 -21 -45 1 -65 24 -22 45 -21 65 1 22 24 21 45
-1 65 -24 22 -45 21 -65 -1z"/>
<path d="M597 2503 c-4 -3 -7 -21 -7 -39 0 -28 -4 -33 -27 -36 -17 -2 -28 -9
-28 -18 0 -9 11 -16 28 -18 18 -2 27 -9 27 -22 0 -29 11 -50 26 -50 9 0 14 12
14 34 0 32 3 35 32 38 22 2 34 9 36 21 3 14 -4 17 -32 17 -35 0 -36 1 -36 40
0 38 -14 52 -33 33z"/>
<path d="M830 2409 c0 -18 5 -20 42 -17 31 2 44 8 46 21 3 14 -4 17 -42 17
-40 0 -46 -3 -46 -21z"/>
<path d="M975 2420 c-12 -19 10 -32 51 -28 27 2 39 8 39 18 0 19 -79 27 -90
10z"/>
<path d="M1162 2378 c-22 -22 -14 -67 13 -80 21 -9 28 -8 45 7 36 32 20 85
-25 85 -12 0 -26 -5 -33 -12z"/>
<path d="M2200 2351 c-36 -10 -49 -54 -25 -81 21 -24 67 -26 85 -5 7 9 13 32
14 53 1 33 -2 37 -24 39 -14 1 -36 -2 -50 -6z"/>
<path d="M2875 2420 c-24 -46 -20 -50 51 -50 56 0 65 2 60 16 -3 9 -6 19 -6
24 0 18 -33 40 -60 40 -22 0 -33 -7 -45 -30z"/>
<path d="M3620 2351 c-36 -10 -49 -54 -25 -81 21 -24 67 -26 85 -5 7 9 13 32
14 53 1 33 -2 37 -24 39 -14 1 -36 -2 -50 -6z"/>
<path d="M4311 2352 c-54 -16 -42 -94 16 -100 38 -4 66 31 61 75 -3 30 -29 38
-77 25z"/>
</g>
</svg>
